<?xml version="1.0" standalone="no"?>
<!DOCTYPE svg PUBLIC "-//W3C//DTD SVG 20010904//EN"
 "http://www.w3.org/TR/2001/REC-SVG-20010904/DTD/svg10.dtd">
<svg version="1.0" xmlns="http://www.w3.org/2000/svg"
 width="1170.000000pt" height="189.000000pt" viewBox="0 0 1170.000000 189.000000"
 preserveAspectRatio="xMidYMid meet">
<metadata>
Created by potrace 1.16, written by Peter Selinger 2001-2019
</metadata>
<g transform="translate(0.000000,189.000000) scale(0.100000,-0.100000)"
fill="#000000" stroke="none">
<path d="M10109 1437 c-43 -49 -46 -57 -52 -122 -5 -60 -3 -77 16 -116 13 -25
28 -44 35 -41 7 2 12 -5 12 -16 0 -14 -17 -26 -71 -47 -86 -33 -99 -56 -99
-168 0 -47 -7 -98 -20 -137 -11 -34 -20 -84 -20 -111 0 -40 -4 -51 -27 -69
-24 -18 -38 -20 -127 -18 l-101 3 -30 94 c-38 117 -53 130 -126 112 -28 -7
-52 -11 -54 -9 -22 22 -53 81 -49 93 11 27 -35 83 -91 110 -55 27 -65 40 -65
80 0 41 -12 56 -57 76 -26 11 -47 27 -50 39 -6 24 -16 25 -33 5 -10 -12 -10
-18 -1 -29 27 -32 -47 -92 -99 -81 -23 5 -31 2 -40 -14 -8 -16 -15 -19 -29
-12 -11 6 -32 6 -57 -1 -83 -21 -99 -21 -127 4 -58 53 -39 98 44 98 42 0 49 3
49 20 0 24 -15 27 -24 5 -4 -12 -14 -14 -41 -9 -58 10 -83 -1 -94 -44 -21 -78
37 -173 114 -188 49 -9 60 -26 41 -63 -23 -43 -20 -51 18 -51 52 0 95 -20 111
-50 12 -24 12 -38 1 -100 -8 -39 -17 -74 -21 -78 -4 -4 -118 -5 -253 -3 l-247
3 -62 66 c-54 58 -63 72 -63 105 0 24 -10 53 -27 80 -15 23 -35 65 -44 92 -10
28 -18 41 -18 30 -1 -25 -47 -124 -68 -147 -10 -11 -14 -29 -11 -50 7 -42 -23
-101 -66 -130 -17 -12 -37 -30 -44 -39 -16 -23 -61 -11 -105 28 -80 70 -129
133 -141 179 -11 44 -12 45 -23 23 -6 -13 -14 -36 -17 -50 -3 -16 -40 -57 -93
-106 -82 -75 -91 -80 -140 -85 -38 -4 -56 -1 -64 9 -7 7 -17 59 -23 116 -9 80
-14 102 -27 105 -18 3 -39 -43 -39 -84 0 -13 -9 -33 -19 -43 -12 -12 -16 -22
-9 -29 5 -5 8 -20 6 -33 -2 -20 -8 -23 -33 -21 -44 6 -57 20 -49 56 3 17 10
35 15 41 16 17 9 69 -15 116 -15 27 -21 50 -17 58 8 12 -16 77 -25 68 -2 -2
-5 -29 -7 -60 -3 -47 -8 -60 -30 -77 -15 -12 -38 -41 -52 -64 -36 -61 -59 -80
-90 -72 -25 6 -36 23 -66 105 l-13 34 -17 -62 c-9 -34 -25 -72 -36 -84 -11
-12 -23 -34 -27 -50 -6 -26 -8 -27 -76 -27 -38 0 -71 4 -75 10 -3 5 -13 6 -21
3 -10 -4 -17 2 -21 16 -3 11 -9 21 -14 21 -5 0 -9 10 -9 23 -1 18 -5 15 -21
-16 -11 -21 -23 -37 -27 -35 -23 12 -60 27 -76 32 -11 4 -16 12 -12 21 3 9 -3
19 -14 25 -25 13 -25 25 0 50 14 14 34 20 63 20 42 1 42 1 -58 49 -55 27 -108
55 -118 63 -17 13 -15 15 23 41 23 15 46 27 51 27 25 0 3 19 -47 40 -46 19
-59 30 -73 61 -17 37 -17 37 -32 16 -8 -12 -17 -30 -21 -40 -7 -16 -30 -29
-92 -51 -17 -6 -15 -10 17 -31 36 -25 56 -61 40 -74 -4 -4 -45 -23 -91 -42
-80 -33 -82 -34 -60 -49 12 -8 32 -24 45 -35 l22 -20 -27 -32 -28 -32 -62 56
c-35 30 -69 70 -76 87 l-13 31 -8 -38 c-6 -31 -18 -46 -63 -80 -31 -23 -65
-47 -76 -53 -19 -11 -19 -12 3 -23 18 -10 20 -15 10 -27 -19 -23 -51 -16 -93
20 -37 33 -39 37 -37 91 2 84 23 115 79 115 39 0 42 17 5 26 -49 11 -143 46
-143 54 0 11 44 48 63 52 36 6 21 23 -33 36 -90 22 -96 40 -26 83 l28 17 -60
17 c-44 13 -62 23 -66 37 -5 20 -7 19 -35 -9 -19 -20 -45 -33 -71 -37 l-42 -7
33 -22 c52 -35 45 -59 -21 -75 -67 -17 -80 -27 -44 -36 29 -8 53 -32 54 -53 0
-20 -42 -42 -100 -53 -69 -13 -89 -30 -35 -30 28 0 46 -7 66 -26 25 -24 27
-31 22 -83 -3 -31 -10 -64 -15 -73 -14 -29 -47 -22 -66 14 -9 17 -30 44 -46
59 -28 27 -29 29 -34 164 -4 118 -7 136 -21 133 -13 -3 -17 -24 -22 -118 -4
-63 -7 -125 -8 -137 -1 -15 -11 -25 -38 -34 -21 -6 -51 -22 -66 -35 -31 -26
-86 -32 -131 -14 -21 8 -26 16 -26 45 0 20 7 51 14 70 12 27 21 35 41 35 36 0
23 16 -20 24 -19 4 -43 15 -53 26 -9 10 -28 20 -42 22 -16 2 -27 12 -31 28 -7
23 -7 23 -8 3 -1 -24 -28 -43 -60 -43 -12 0 -20 -6 -18 -12 1 -7 -19 -20 -44
-28 l-47 -16 28 -16 c30 -17 45 -60 38 -114 l-3 -28 -80 -2 c-64 -2 -91 -7
-132 -28 -29 -14 -61 -26 -70 -26 -10 0 -31 -7 -47 -15 -16 -8 -54 -15 -87
-15 l-59 0 -2 153 c-4 279 -15 404 -33 400 -13 -3 -27 -92 -25 -158 0 -27 -2
-128 -6 -222 l-6 -173 -146 0 c-114 0 -143 3 -134 12 16 16 15 53 -2 67 -16
13 -17 126 -2 166 7 18 6 18 -6 4 -16 -20 -54 -33 -62 -21 -3 5 -17 7 -32 4
-17 -3 -36 3 -54 17 -34 24 -57 26 -84 6 -11 -8 -37 -15 -57 -15 -31 0 -41 5
-56 30 -13 23 -24 30 -48 30 -34 0 -75 34 -75 63 0 12 -9 17 -32 17 -18 0 -52
9 -75 20 -40 18 -43 22 -43 60 0 22 -2 40 -5 40 -2 0 -21 -11 -41 -25 -34 -23
-38 -24 -55 -9 -10 9 -21 28 -24 43 -12 54 -132 148 -213 167 -76 18 -89 17
-95 -6 -6 -24 -29 -26 -47 -5 -18 22 -32 18 -59 -15 -13 -17 -29 -30 -36 -30
-8 0 -16 -21 -20 -60 -4 -34 -15 -70 -26 -84 -22 -27 -25 -46 -7 -46 6 0 20
-8 30 -17 10 -9 28 -18 39 -20 22 -3 68 -35 137 -94 23 -21 59 -40 79 -44 51
-9 110 -41 123 -65 12 -22 78 -28 97 -9 8 8 17 8 31 0 11 -6 37 -11 57 -11 49
0 93 -22 140 -70 37 -38 42 -40 100 -40 36 0 66 -5 73 -12 7 -7 43 -20 80 -29
64 -16 41 -17 -548 -15 -338 2 -631 6 -650 11 -50 11 -63 24 -56 57 6 29 -8
39 -18 13 -7 -18 -47 -14 -92 10 -16 8 -44 18 -62 21 -38 7 -39 12 -9 40 31
30 77 171 77 238 0 45 -4 57 -20 66 -28 15 -40 5 -40 -36 0 -24 -5 -34 -15
-34 -8 0 -14 -6 -13 -12 2 -7 -3 -13 -10 -13 -14 0 -63 124 -66 165 -1 16 7
28 22 36 32 16 54 51 47 73 -3 10 -6 39 -7 63 0 35 -5 46 -22 54 -12 5 -22 20
-24 37 -2 16 -9 27 -18 27 -8 0 -17 6 -20 14 -6 16 -149 54 -160 43 -4 -3 -4
-13 -1 -21 5 -13 12 -14 33 -6 24 9 104 -2 104 -15 0 -3 -15 -11 -33 -19 -62
-25 -99 -98 -58 -111 32 -10 51 -40 53 -84 1 -33 -4 -47 -25 -69 -15 -16 -27
-35 -27 -43 0 -9 -9 -51 -20 -95 -11 -43 -25 -119 -30 -169 -10 -94 -38 -223
-51 -239 -5 -5 -284 -8 -673 -7 -366 1 -782 -1 -926 -5 l-260 -7 0 -203 0
-204 5850 0 5850 0 0 210 0 211 -639 -2 c-592 -1 -643 0 -680 17 -30 13 -42
25 -47 48 -5 25 -2 34 22 53 16 12 37 29 47 38 19 17 23 69 7 109 -5 15 -14
54 -19 88 -14 83 -47 130 -102 148 -64 20 -75 30 -51 49 20 17 57 131 41 131
-5 0 -9 15 -9 34 0 52 -16 84 -66 132 -24 24 -46 44 -47 43 -1 0 -23 -23 -48
-52z m-539 -667 c28 -30 74 -156 63 -173 -6 -10 -168 -5 -179 6 -3 3 -1 41 4
84 8 60 16 82 32 95 31 25 48 22 80 -12z"/>
<path d="M990 1000 l0 -390 300 0 c165 0 300 4 300 8 0 5 -81 89 -180 187
-100 98 -177 182 -173 186 5 5 91 10 193 11 l184 3 -308 193 c-169 105 -309
192 -312 192 -2 0 -4 -175 -4 -390z m190 148 c1 4 9 -8 19 -27 l18 -34 21 24
c27 28 28 14 3 -27 -26 -42 -78 -60 -126 -44 -37 12 -75 52 -75 79 0 11 4 10
16 -7 15 -21 42 -32 29 -12 -3 6 -1 10 6 10 7 0 10 3 6 6 -8 8 16 33 26 27 4
-2 7 0 7 6 0 7 8 7 25 1 14 -5 25 -6 25 -2z m-16 -245 c5 -12 9 -14 18 -5 18
18 31 14 25 -8 -4 -16 0 -20 20 -20 22 0 24 -2 12 -16 -11 -14 -11 -18 5 -29
16 -12 16 -14 1 -23 -14 -7 -15 -13 -7 -29 10 -18 9 -20 -14 -15 -23 4 -24 2
-18 -24 7 -29 7 -29 -14 -11 -20 18 -21 18 -33 -4 l-12 -23 -9 23 c-8 23 -9
23 -28 6 -19 -18 -20 -17 -20 10 0 22 -4 26 -20 22 -23 -6 -26 3 -7 22 10 10
8 14 -6 23 -18 9 -18 10 -1 23 16 11 16 15 5 29 -12 14 -11 16 8 16 14 0 21 6
21 20 0 23 10 26 28 8 9 -9 13 -7 18 5 3 9 10 17 14 17 4 0 11 -8 14 -17z"/>
</g>
</svg>
